<?xml version="1.0" encoding="utf-8"?>
<!-- Generator: Adobe Illustrator 26.5.0, SVG Export Plug-In . SVG Version: 6.00 Build 0)  -->
<svg version="1.1" id="Layer_1" xmlns="http://www.w3.org/2000/svg" xmlns:xlink="http://www.w3.org/1999/xlink" x="0px" y="0px"
	 viewBox="0 0 500 671" style="enable-background:new 0 0 500 671;" xml:space="preserve">
<style type="text/css">
	.st0{fill-rule:evenodd;clip-rule:evenodd;fill:#5025B8;}
</style>
<path class="st0" d="M180.5,161.4l69.6-40.2l71.3,41.2L471.2,41.2v207.8v255.4L250,632L28.9,504.3V286.7l-0.1,0.1V38.6L180.5,161.4z
	 M67.6,307.7V482L250,587.3L432.5,482V310.5L249.9,417.9L67.6,307.7z M74.9,267l175.2,105.9l177.6-104.4L250,165.9L74.9,267z
	 M361.2,179.9l71.3,41.8v-99.5C408.8,141.4,385,160.7,361.2,179.9z M67.5,219.2l71.3-41.8l-71.3-57.7
	C67.5,152.8,67.5,186,67.5,219.2z"/>
</svg>
