<?xml version="1.0" encoding="UTF-8"?>
<svg version="1.1" xmlns="http://www.w3.org/2000/svg" width="389" height="255">
<path d="M0 0 C1.72882671 -0.01059839 1.72882671 -0.01059839 3.49257922 -0.02141088 C4.75948384 -0.0189958 6.02638845 -0.01658071 7.33168411 -0.01409245 C8.69062191 -0.01854431 10.04955712 -0.02385818 11.40848851 -0.02996117 C15.14654553 -0.04415801 18.88451948 -0.04580414 22.6225996 -0.04536426 C26.65273068 -0.047011 30.68282739 -0.06007485 34.71294022 -0.07155704 C43.52700849 -0.09441762 52.3410527 -0.10232882 61.1551466 -0.10738349 C66.65826336 -0.11063935 72.16137313 -0.11716117 77.66448593 -0.12438488 C92.89979579 -0.14395236 108.13509913 -0.16035564 123.37042236 -0.16326141 C124.3455811 -0.16344898 125.32073983 -0.16363655 126.32544883 -0.16382981 C128.30235434 -0.16419606 130.27925985 -0.16455976 132.25616536 -0.16492092 C133.2375105 -0.16510373 134.21885564 -0.16528654 135.22993851 -0.16547489 C136.21248089 -0.16565544 137.19502328 -0.16583599 138.20733967 -0.16602201 C154.12879623 -0.1695638 170.05011754 -0.19658585 185.97152719 -0.23397278 C202.31619907 -0.2720466 218.66080384 -0.29141882 235.00552106 -0.29172093 C244.18314462 -0.29230571 253.36060687 -0.30081138 262.53818893 -0.32971859 C270.35302192 -0.35422014 278.16763476 -0.36152372 285.98249575 -0.34647106 C289.96940036 -0.33929701 293.95587015 -0.34018045 297.94272614 -0.36288166 C301.59474543 -0.38347695 305.24599581 -0.38086712 308.89800683 -0.36000682 C310.84046307 -0.35486136 312.78293679 -0.37428743 314.72529292 -0.39466852 C323.08788747 -0.31421495 327.83910851 1.26061314 334.06160665 6.74547982 C336.18650633 9.19322542 335.76083674 11.55649546 335.77083206 14.7305975 C335.77692317 15.39046286 335.78301427 16.05032822 335.78928995 16.7301895 C335.80596601 18.94580603 335.80113781 21.16085074 335.79634476 23.3765173 C335.80368259 24.96326961 335.81226798 26.55001657 335.82201004 28.13675594 C335.84426844 32.45094024 335.84715446 36.76493377 335.84526253 41.0791676 C335.84514299 44.68001053 335.85370048 48.28081279 335.86204004 51.88164443 C335.88129081 60.37800973 335.88415233 68.87427678 335.87739944 77.37065792 C335.87076161 86.13501645 335.89360865 94.8989538 335.93071318 103.6632269 C335.96140956 111.18691047 335.97277015 118.71045858 335.96887636 126.23420352 C335.96680827 130.72814398 335.97229669 135.22175698 335.99676895 139.71563816 C336.01903184 143.9437399 336.0171625 148.17115757 335.99684143 152.39926243 C335.99343019 153.94964281 335.99852555 155.50006919 336.01282501 157.05038738 C336.12591953 170.22271198 336.12591953 170.22271198 333.04109573 174.17832088 C330.04257645 176.52087544 328.13197434 177.00400189 324.37642288 177.26006222 C324.04642288 177.59006222 323.71642288 177.92006222 323.37642288 178.26006222 C321.63771066 178.36102442 319.89486221 178.39114209 318.15322399 178.39428329 C317.01361278 178.39874114 315.87400158 178.40319898 314.6998567 178.40779191 C313.43199546 178.40760755 312.16413422 178.40742319 310.85785294 178.40723324 C309.50975582 178.41053002 308.16165969 178.41425518 306.81356484 178.41837472 C303.0915514 178.42842458 299.36955409 178.43211631 295.64752901 178.43476403 C291.63985083 178.43865842 287.63218552 178.44823752 283.62451553 178.45697689 C273.93552681 178.47676881 264.24653701 178.48681227 254.55753312 178.49570468 C249.99747324 178.50008428 245.43741453 178.50545205 240.87735558 178.51069355 C225.72194631 178.52771074 210.56653777 178.54220451 195.41112041 178.54944229 C191.47531954 178.55135227 187.53951866 178.55327259 183.6037178 178.55522823 C182.13633131 178.55595384 182.13633131 178.55595384 180.63930065 178.55669411 C164.79527623 178.56499278 148.95132736 178.59032475 133.10733592 178.62280891 C116.84864568 178.65587198 100.58999384 178.67389049 84.3312698 178.67708653 C75.19945253 178.67925264 66.06774531 178.68801567 56.93596077 178.71354771 C49.15768026 178.73524467 41.37953652 178.7433102 33.60122918 178.73358092 C29.63262702 178.7290329 25.6643071 178.73095129 21.69574356 178.75034237 C18.06035625 178.7679519 14.42545752 178.76699468 10.79006518 178.75144508 C8.85641908 178.74794087 6.92276799 178.7641121 4.9891929 178.78104955 C-2.05347966 178.7288566 -6.60683756 177.97955819 -12.62357712 174.26006222 C-13.28357712 173.93006222 -13.94357712 173.60006222 -14.62357712 173.26006222 C-17.04604611 165.3517547 -16.88771425 157.53782235 -16.83475876 149.33281612 C-16.83255407 147.8388393 -16.83125133 146.34486091 -16.83077621 144.85088253 C-16.82785718 141.65067952 -16.81865988 138.45057994 -16.80447197 135.25040722 C-16.78211 130.19132025 -16.77410064 125.13227101 -16.76797104 120.07314205 C-16.75661869 112.07651926 -16.73590841 104.07995326 -16.71107334 96.08336198 C-16.66662877 81.74536632 -16.63356948 67.40735016 -16.61082929 53.06930387 C-16.60241756 48.03815457 -16.58838982 43.00706088 -16.56985676 37.97593904 C-16.55923028 34.85321816 -16.55263632 31.73049781 -16.5470562 28.60776424 C-16.54358015 27.1577098 -16.53836007 25.70765836 -16.53128815 24.257617 C-16.52186301 22.28201838 -16.51913849 20.30639114 -16.51678085 18.33077145 C-16.51326142 17.22432592 -16.50974199 16.1178804 -16.50611591 14.97790623 C-16.50295736 12.16363749 -16.50295736 12.16363749 -17.62357712 9.26006222 C-12.36328963 3.72291749 -7.7773351 0.01522465 0 0 Z " fill="#040303" transform="translate(33.62357711791992,24.739937782287598)"/>
<path d="M0 0 C0.66 0.33 1.32 0.66 2 1 C2 28.39 2 55.78 2 84 C2.91641869 81.25074394 3.20469398 79.27003661 3.37304688 76.41186523 C3.42980591 75.48337265 3.48656494 74.55488007 3.54504395 73.59825134 C3.63102844 72.09362083 3.63102844 72.09362083 3.71875 70.55859375 C3.78155151 69.52114517 3.84435303 68.48369659 3.90905762 67.41481018 C4.1098679 64.08925655 4.3052771 60.76341519 4.5 57.4375 C4.69543209 54.13662795 4.89206592 50.83583787 5.09094238 47.53517151 C5.21445101 45.48170188 5.33591058 43.42810759 5.45495605 41.37437439 C5.82190003 35.2290719 6.35047218 29.12207844 7 23 C11.29 23 15.58 23 20 23 C21.59194316 38.65410771 23.10539355 54.30136594 24.1875 70 C24.27112793 71.20229248 24.35475586 72.40458496 24.44091797 73.64331055 C24.80373882 79.10708052 25.1034697 84.52406505 25 90 C22.03 90 19.06 90 16 90 C16 86.04 16 82.08 16 78 C14.68 78 13.36 78 12 78 C12 81.96 12 85.92 12 90 C8.37 90 4.74 90 1 90 C1 111.45 1 132.9 1 155 C-1.33761804 151.49357293 -1.2438598 150.1114405 -1.22705078 145.96801758 C-1.22689972 144.72695755 -1.22674866 143.48589752 -1.22659302 142.20722961 C-1.2163798 140.8529952 -1.20594781 139.49876242 -1.1953125 138.14453125 C-1.19158167 136.75876571 -1.18873503 135.37299752 -1.18673706 133.98722839 C-1.17910608 130.3424652 -1.1594623 126.69786176 -1.1373291 123.05316162 C-1.11685908 119.33298911 -1.10773288 115.61279074 -1.09765625 111.89257812 C-1.07621581 104.5949793 -1.04208644 97.29751205 -1 90 C-2.98 90 -4.96 90 -7 90 C-7.66 84.06 -8.32 78.12 -9 72 C-10.04772198 87.83028671 -10.30843365 103.65492715 -10.53222656 119.51324463 C-10.58327203 123.07397456 -10.63851578 126.6346394 -10.69335938 130.1953125 C-10.79957854 137.13015156 -10.90130124 144.06504992 -11 151 C-12.99543781 147.67107873 -13.24410241 145.16714405 -13.22705078 141.31347656 C-13.22689972 140.17259583 -13.22674866 139.03171509 -13.22659302 137.85626221 C-13.21627045 136.63010193 -13.20594788 135.40394165 -13.1953125 134.140625 C-13.19106766 132.25135284 -13.19106766 132.25135284 -13.18673706 130.32391357 C-13.17744121 126.98326098 -13.15948583 123.64288331 -13.1373291 120.30230713 C-13.11683208 116.89036428 -13.10772712 113.47839298 -13.09765625 110.06640625 C-13.07559907 103.37752832 -13.04212367 96.68878003 -13 90 C-14.98 90 -16.96 90 -19 90 C-19 67.89 -19 45.78 -19 23 C-17.35 23 -15.7 23 -14 23 C-14 16.4 -14 9.8 -14 3 C-13.34 3.33 -12.68 3.66 -12 4 C-12 10.27 -12 16.54 -12 23 C-11.34 23 -10.68 23 -10 23 C-9.67 27.29 -9.34 31.58 -9 36 C-8.34 31.71 -7.68 27.42 -7 23 C-5.02 23 -3.04 23 -1 23 C-1.01160156 22.09378906 -1.02320313 21.18757813 -1.03515625 20.25390625 C-1.08588915 13.40496536 -0.93601269 6.786092 0 0 Z " fill="#F3F2F2" transform="translate(301,31)"/>
<path d="M0 0 C0.66 0.33 1.32 0.66 2 1 C2.01401855 1.99797607 2.01401855 1.99797607 2.02832031 3.01611328 C2.08226019 6.05314019 2.16586062 9.08866579 2.25 12.125 C2.26417969 13.17171875 2.27835937 14.2184375 2.29296875 15.296875 C2.40608096 21.52760176 2.40608096 21.52760176 5.03125 27.03125 C8.05928641 31.59733665 7.4292365 36.03237342 7.25 41.375 C7.23195313 42.39722656 7.21390625 43.41945312 7.1953125 44.47265625 C7.14839491 46.98274749 7.08276729 49.49087764 7 52 C5.68 52 4.36 52 3 52 C3 55.63 3 59.26 3 63 C4.32 63 5.64 63 7 63 C7.08115993 66.06303578 7.14057409 69.12390815 7.1875 72.1875 C7.21263672 73.05181641 7.23777344 73.91613281 7.26367188 74.80664062 C7.27333984 75.64775391 7.28300781 76.48886719 7.29296875 77.35546875 C7.3086792 78.12528076 7.32438965 78.89509277 7.34057617 79.68823242 C7 82 7 82 5.51147461 84.10913086 C3.18063918 88.56712187 3.53923999 92.93924487 3.5234375 97.8984375 C3.50006821 99.49916611 3.50006821 99.49916611 3.47622681 101.13223267 C3.42876997 104.54648012 3.40102421 107.96052785 3.375 111.375 C3.32633571 115.84122944 3.26975554 120.30733134 3.2109375 124.7734375 C3.1981073 125.842453 3.1852771 126.91146851 3.17205811 128.01287842 C3.05936444 136.03782116 2.69055231 144.00369954 2 152 C1.34 152 0.68 152 0 152 C-0.33 132.2 -0.66 112.4 -1 92 C-3.31 91.67 -5.62 91.34 -8 91 C-12.72423951 86.53112479 -14.07107284 81.38250808 -14.29052734 75.03955078 C-14.31711853 73.09159404 -14.33157493 71.14344585 -14.3359375 69.1953125 C-14.3425943 68.15736542 -14.3492511 67.11941833 -14.35610962 66.05001831 C-14.36621047 63.85969814 -14.37092744 61.66934735 -14.37060547 59.47900391 C-14.37497637 56.14303465 -14.41131826 52.80839155 -14.44921875 49.47265625 C-14.45508802 47.33854616 -14.45905667 45.20442983 -14.4609375 43.0703125 C-14.48249405 41.58556931 -14.48249405 41.58556931 -14.50448608 40.0708313 C-14.45750765 32.88635964 -12.88117394 28.13491821 -8.80258179 22.28152466 C-7 21 -7 21 0 21 C0 14.07 0 7.14 0 0 Z " fill="#EEEEEE" transform="translate(272,31)"/>
<path d="M0 0 C0.66 0 1.32 0 2 0 C2.10827346 36.29370661 2.09886061 72.58261651 1.59428024 108.87360764 C1.56266816 111.17525617 1.53264041 113.47692079 1.50296021 115.77859497 C1.45552791 119.41814895 1.40327629 123.0576033 1.34712219 126.69703293 C1.31769662 128.64504463 1.29164447 130.59310641 1.26574707 132.54116821 C1.1342465 140.39314674 0.69345313 148.17764282 0 156 C-0.66 155.67 -1.32 155.34 -2 155 C-2.495 119.855 -2.495 119.855 -3 84 C-4.485 84.99 -4.485 84.99 -6 86 C-10.19062446 85.92380683 -12.26691873 85.71326827 -15.3125 82.75 C-18.17719533 78.08160761 -19.25055725 74.50511866 -19.22705078 69.01635742 C-19.22689972 67.83551071 -19.22674866 66.654664 -19.22659302 65.43803406 C-19.21110916 63.54091423 -19.21110916 63.54091423 -19.1953125 61.60546875 C-19.1924826 60.30297684 -19.18965271 59.00048492 -19.18673706 57.65852356 C-19.17912697 54.20777616 -19.15950135 50.75719902 -19.1373291 47.30651855 C-19.11681388 43.780541 -19.10772324 40.25453575 -19.09765625 36.72851562 C-19.07625272 29.81894079 -19.04214874 22.90947859 -19 16 C-16.03 16 -13.06 16 -10 16 C-10 35.14 -10 54.28 -10 74 C-9.01 73.505 -9.01 73.505 -8 73 C-7.67 54.52 -7.34 36.04 -7 17 C-5.02 17 -3.04 17 -1 17 C-1.01160156 16.02417969 -1.02320312 15.04835938 -1.03515625 14.04296875 C-1.04417969 12.77066406 -1.05320312 11.49835937 -1.0625 10.1875 C-1.07410156 8.92292969 -1.08570312 7.65835938 -1.09765625 6.35546875 C-1 3 -1 3 0 0 Z " fill="#EAEAEA" transform="translate(105,37)"/>
<path d="M0 0 C0.99 0.66 1.98 1.32 3 2 C3.1875 4.625 3.1875 4.625 3 7 C3.66 7 4.32 7 5 7 C5 14.92 5 22.84 5 31 C5.66 31 6.32 31 7 31 C7 23.41 7 15.82 7 8 C9.97 8 12.94 8 16 8 C16 30.11 16 52.22 16 75 C13.36 75 10.72 75 8 75 C8 65.76 8 56.52 8 47 C7.01 47 6.02 47 5 47 C5 56.24 5 65.48 5 75 C4.01 75 3.02 75 2 75 C2.00222061 75.58199158 2.00444122 76.16398315 2.00672913 76.76361084 C2.02919502 82.93029148 2.04407475 89.09696014 2.05493164 95.26367188 C2.05989949 97.55208815 2.06667605 99.84050136 2.07543945 102.12890625 C2.12884923 116.45529248 1.89704327 130.69989639 1 145 C0.67 145 0.34 145 0 145 C-0.99397675 139.85062649 -1.32250207 134.77678317 -1.55859375 129.55078125 C-1.60084579 128.63565262 -1.64309784 127.72052399 -1.68663025 126.77766418 C-2.13125696 116.2479809 -2.11022694 105.72434706 -2.0625 95.1875 C-2.05746397 93.2115897 -2.05290486 91.23567813 -2.04882812 89.25976562 C-2.03801427 84.5064778 -2.02087155 79.75325385 -2 75 C-2.66 75 -3.32 75 -4 75 C-4 52.56 -4 30.12 -4 7 C-3.01 7 -2.02 7 -1 7 C-1.020625 6.030625 -1.04125 5.06125 -1.0625 4.0625 C-1 1 -1 1 0 0 Z " fill="#F5F5F5" transform="translate(137,46)"/>
<path d="M0 0 C0.66 0.33 1.32 0.66 2 1 C3.08967018 6.34972637 3.17716188 11.66870158 3.24609375 17.11328125 C3.27781667 18.92220509 3.30981024 20.7311242 3.34204102 22.54003906 C3.35743927 23.4827063 3.37283752 24.42537354 3.38870239 25.39660645 C3.72750382 45.64163362 4.60173744 65.80151728 6 86 C5.34 86 4.68 86 4 86 C4 111.41 4 136.82 4 163 C3.34 163 2.68 163 2 163 C1.28586904 137.32737189 0.83994382 111.6828612 1 86 C-0.32 86 -1.64 86 -3 86 C-3 82.04 -3 78.08 -3 74 C-4.32 74 -5.64 74 -7 74 C-7 77.96 -7 81.92 -7 86 C-9.97 86 -12.94 86 -16 86 C-16.13471002 76.86216998 -15.72460096 67.80339783 -15.125 58.6875 C-15.03530721 57.28385492 -14.94562636 55.88020908 -14.85595703 54.4765625 C-14.08780075 42.63470605 -13.11057928 30.81467322 -12 19 C-8.04 19 -4.08 19 0 19 C0 12.73 0 6.46 0 0 Z " fill="#EBEBEB" transform="translate(251,35)"/>
<path d="M0 0 C0.66 0 1.32 0 2 0 C3.4783226 2.95664519 3.06032783 5.74229737 3 9 C3.86625 9.061875 3.86625 9.061875 4.75 9.125 C8.1915291 10.46337243 9.21614699 12.86287919 11 16 C12.2928243 19.70443886 12.09852448 23.35935601 12.0625 27.25 C12.05347656 28.51328125 12.04445312 29.7765625 12.03515625 31.078125 C12.02355469 32.04234375 12.01195312 33.0065625 12 34 C9.03 34 6.06 34 3 34 C3 29.38 3 24.76 3 20 C2.01 20 1.02 20 0 20 C0.33 35.18 0.66 50.36 1 66 C1.66 66.33 2.32 66.66 3 67 C2.67 58.42 2.34 49.84 2 41 C5.3 41 8.6 41 12 41 C12 52.88 12 64.76 12 77 C10.02 77 8.04 77 6 77 C5.67 76.34 5.34 75.68 5 75 C2.62515978 78.56226033 2.69402283 81.1111972 2.68115234 85.2253418 C2.67110672 85.95729767 2.6610611 86.68925354 2.65071106 87.44338989 C2.61982815 89.86199155 2.60282996 92.28048225 2.5859375 94.69921875 C2.56722994 96.37645933 2.54765683 98.05369046 2.5272522 99.73091125 C2.47588141 104.14493238 2.43628223 108.55898405 2.39910889 112.97314453 C2.3591002 117.4776162 2.30799358 121.98196033 2.2578125 126.48632812 C2.16099468 135.32412922 2.07660867 144.16200225 2 153 C1.34 153.33 0.68 153.66 0 154 C-0.14545848 146.71246 -0.28744645 139.42485775 -0.42724609 132.13720703 C-0.4749873 129.66844219 -0.52346522 127.19969146 -0.57275391 124.73095703 C-0.88320029 109.1516173 -1.07179959 93.58250477 -1 78 C-1.62519531 77.71640625 -2.25039062 77.4328125 -2.89453125 77.140625 C-5.77228085 75.58162151 -6.59992819 73.9334838 -8 71 C-9.90428237 62.53853442 -9.30215387 53.530949 -9.35009766 44.90625 C-9.36667287 42.72222245 -9.39398325 40.53824949 -9.43212891 38.35449219 C-9.48707785 35.18656616 -9.50879525 32.01990174 -9.5234375 28.8515625 C-9.54610687 27.88360748 -9.56877625 26.91565247 -9.59213257 25.91836548 C-9.57246723 19.56340254 -8.44169489 14.75929138 -4 10 C-3.01 9.67 -2.02 9.34 -1 9 C-1.020625 7.700625 -1.04125 6.40125 -1.0625 5.0625 C-1.08399454 3.70834367 -1.07148199 2.35243917 -1 1 C-0.67 0.67 -0.34 0.34 0 0 Z " fill="#F1F1F1" transform="translate(118,44)"/>
<path d="M0 0 C2.64 0 5.28 0 8 0 C8 22.44 8 44.88 8 68 C5.36 68 2.72 68 0 68 C-0.49099672 65.9402842 -0.96696806 63.87698702 -1.4375 61.8125 C-1.70433594 60.66394531 -1.97117188 59.51539063 -2.24609375 58.33203125 C-3.24169924 52.61116863 -3.55463499 46.78974519 -4 41 C-4.33 49.91 -4.66 58.82 -5 68 C-7.31 68 -9.62 68 -12 68 C-12 45.89 -12 23.78 -12 1 C-9.36 1 -6.72 1 -4 1 C-3.01 8.26 -2.02 15.52 -1 23 C-0.67 15.41 -0.34 7.82 0 0 Z " fill="#F4F4F4" transform="translate(181,53)"/>
<path d="M0 0 C4.29 0 8.58 0 13 0 C13.76888055 3.07552218 14.18600599 5.51420997 14.37304688 8.62231445 C14.42980591 9.53459305 14.48656494 10.44687164 14.54504395 11.38679504 C14.63102844 12.86015572 14.63102844 12.86015572 14.71875 14.36328125 C14.78155151 15.38745651 14.84435303 16.41163177 14.90905762 17.46684265 C15.10955517 20.74852588 15.30491471 24.030491 15.5 27.3125 C15.63115761 29.47983909 15.76266437 31.64715708 15.89453125 33.81445312 C16.08675652 36.97433661 16.27874527 40.13423155 16.46923828 43.29421997 C16.94651639 51.19850224 17.45654968 59.09999057 18 67 C15.03 67 12.06 67 9 67 C9 63.04 9 59.08 9 55 C7.68 55 6.36 55 5 55 C5 58.96 5 62.92 5 67 C2.03 67 -0.94 67 -4 67 C-4.28158702 57.832778 -3.69364474 48.945851 -2.78393555 39.83520508 C-1.98715177 31.57500193 -1.60324674 23.32485291 -1.34204102 15.03173828 C-1.17200926 9.9428999 -0.84530797 5.02294569 0 0 Z " fill="#F8F8F8" transform="translate(67,54)"/>
<path d="M0 0 C4.80202432 1.32469636 5.82748031 2.96828045 8.625 7 C9.7732685 9.296537 9.74061175 10.58313167 9.72265625 13.1328125 C9.71943359 13.93847656 9.71621094 14.74414062 9.71289062 15.57421875 C9.70451172 16.41597656 9.69613281 17.25773437 9.6875 18.125 C9.68298828 18.97449219 9.67847656 19.82398437 9.67382812 20.69921875 C9.66202874 22.79950909 9.64409306 24.8997633 9.625 27 C6.655 27 3.685 27 0.625 27 C0.625 22.05 0.625 17.1 0.625 12 C-0.365 12 -1.355 12 -2.375 12 C-2.045 27.18 -1.715 42.36 -1.375 58 C-0.715 58 -0.055 58 0.625 58 C0.955 53.05 1.285 48.1 1.625 43 C0.965 43 0.305 43 -0.375 43 C-0.375 39.7 -0.375 36.4 -0.375 33 C2.925 33 6.225 33 9.625 33 C9.625 44.88 9.625 56.76 9.625 69 C6.95833333 69 4.29166667 69 1.625 69 C0.635 69.99 0.635 69.99 -0.375 71 C-2.6875 71.125 -2.6875 71.125 -5.375 70 C-10.94313804 64.01713818 -11.09841615 57.6842595 -11.00390625 49.87109375 C-11.00631821 48.72262466 -11.00873016 47.57415558 -11.01121521 46.3908844 C-11.01023942 43.97287529 -10.99691026 41.5548431 -10.97192383 39.13696289 C-10.93757306 35.44535165 -10.95129264 31.75613089 -10.97070312 28.06445312 C-10.96380522 25.70832319 -10.95413335 23.35219941 -10.94140625 20.99609375 C-10.94636612 19.89800888 -10.95132599 18.79992401 -10.95643616 17.66856384 C-10.85821417 11.25071725 -10.25964143 7.18995146 -6.375 2 C-3.375 0 -3.375 0 0 0 Z " fill="#F8F7F7" transform="translate(202.375,52)"/>
<path d="M0 0 C2.97 0 5.94 0 9 0 C9 18.15 9 36.3 9 55 C10.65 55 12.3 55 14 55 C14 59.29 14 63.58 14 68 C9.38 68 4.76 68 0 68 C0 45.56 0 23.12 0 0 Z " fill="#F2F2F2" transform="translate(327,53)"/>
<path d="M0 0 C0.66 0 1.32 0 2 0 C2 3.63 2 7.26 2 11 C3.32 11 4.64 11 6 11 C6 33.11 6 55.22 6 78 C5.01 78 4.02 78 3 78 C3 99.78 3 121.56 3 144 C2.67 144 2.34 144 2 144 C0.72934583 130.20043781 0.88655239 116.40775206 0.9375 102.5625 C0.94252605 100.17382907 0.947087 97.7851571 0.95117188 95.39648438 C0.96208756 89.59763352 0.9787377 83.79882167 1 78 C0.01 78 -0.98 78 -2 78 C-2 55.56 -2 33.12 -2 10 C-1.34 10 -0.68 10 0 10 C0 6.7 0 3.4 0 0 Z " fill="#FAF9F9" transform="translate(159,43)"/>
<path d="M0 0 C2.97 0 5.94 0 9 0 C9 18.15 9 36.3 9 55 C10.65 55 12.3 55 14 55 C14 59.29 14 63.58 14 68 C9.38 68 4.76 68 0 68 C0 45.56 0 23.12 0 0 Z " fill="#F2F2F2" transform="translate(47,53)"/>
<path d="M0 0 C2.97 0 5.94 0 9 0 C9.09284953 7.9801118 9.16384 15.95999636 9.20724869 23.94051552 C9.22808715 27.6465735 9.25633503 31.3522608 9.30175781 35.05810547 C9.34535112 38.63725786 9.36916523 42.21605464 9.37950897 45.79545212 C9.38687635 47.15818247 9.40126338 48.52089427 9.42292023 49.88347244 C9.60616237 61.89465556 9.60616237 61.89465556 7.12304688 65.84765625 C5 68 5 68 2.640625 68.5859375 C1.85171875 68.51632813 1.0628125 68.44671875 0.25 68.375 C-1.85375 68.189375 -1.85375 68.189375 -4 68 C-4 64.04 -4 60.08 -4 56 C-2.515 55.505 -2.515 55.505 -1 55 C-0.67 36.85 -0.34 18.7 0 0 Z " fill="#EFEFEF" transform="translate(225,53)"/>
<path d="M0 0 C108.9 0 217.8 0 330 0 C330 0.33 330 0.66 330 1 C221.1 1 112.2 1 0 1 C0 0.67 0 0.34 0 0 Z " fill="#000000" transform="translate(28,23)"/>
<path d="M0 0 C108.24 0 216.48 0 328 0 C328 0.33 328 0.66 328 1 C219.76 1 111.52 1 0 1 C0 0.67 0 0.34 0 0 Z " fill="#000000" transform="translate(29,204)"/>
<path d="M0 0 C0.99 0 1.98 0 3 0 C3 6.27 3 12.54 3 19 C3.66 19 4.32 19 5 19 C5 22.63 5 26.26 5 30 C4.34 30 3.68 30 3 30 C3 35.61 3 41.22 3 47 C2.01 47 1.02 47 0 47 C0 31.49 0 15.98 0 0 Z " fill="#0A0909" transform="translate(267,64)"/>
<path d="M0 0 C0.33 0 0.66 0 1 0 C1 22.11 1 44.22 1 67 C0.67 67 0.34 67 0 67 C-0.33 61.72 -0.66 56.44 -1 51 C-1.33 51 -1.66 51 -2 51 C-2 47.37 -2 43.74 -2 40 C-3.32 40 -4.64 40 -6 40 C-6 36.37 -6 32.74 -6 29 C-4.68 29 -3.36 29 -2 29 C-2 23.39 -2 17.78 -2 12 C-1.67 12 -1.34 12 -1 12 C-0.67 8.04 -0.34 4.08 0 0 Z " fill="#1E1D1D" transform="translate(281,54)"/>
<path d="M0 0 C0.33 0 0.66 0 1 0 C1 49.5 1 99 1 150 C0.67 150 0.34 150 0 150 C0 100.5 0 51 0 0 Z " fill="#000000" transform="translate(15,39)"/>
<path d="M0 0 C0.33 0 0.66 0 1 0 C1.33 12.21 1.66 24.42 2 37 C2.33 35.35 2.66 33.7 3 32 C3.33 32 3.66 32 4 32 C4.13809004 44.70428397 3.74136918 57.31729149 3 70 C2.67 70 2.34 70 2 70 C1.00602325 64.85062649 0.67749793 59.77678317 0.44140625 54.55078125 C0.39915421 53.63565262 0.35690216 52.72052399 0.31336975 51.77766418 C-0.13125696 41.2479809 -0.11022694 30.72434706 -0.0625 20.1875 C-0.05746397 18.2115897 -0.05290486 16.23567813 -0.04882812 14.25976562 C-0.03801427 9.5064778 -0.02087155 4.75325385 0 0 Z " fill="#B8B7B7" transform="translate(135,121)"/>
<path d="M0 0 C0.33 0 0.66 0 1 0 C1.33 10.23 1.66 20.46 2 31 C2.66 31 3.32 31 4 31 C4 35.95 4 40.9 4 46 C2.68 46 1.36 46 0 46 C0 30.82 0 15.64 0 0 Z " fill="#6D6B6B" transform="translate(200,64)"/>
<path d="M0 0 C0.33 0 0.66 0 1 0 C1 6.6 1 13.2 1 20 C4.63 20 8.26 20 12 20 C12 20.33 12 20.66 12 21 C8.7 21 5.4 21 2 21 C2.165 22.32 2.33 23.64 2.5 25 C3.24891222 32.32035321 3.08205388 39.65161941 3 47 C2.01 46.67 1.02 46.34 0 46 C0 30.82 0 15.64 0 0 Z " fill="#2B2A2A" transform="translate(118,64)"/>
<path d="M0 0 C2.68319586 2.68319586 2.32324237 4.25273816 2.5 8 C2.80642494 13.12410592 3.46918386 17.89880844 4.6953125 22.87890625 C5.0306928 25.2136691 4.71755856 26.77152587 4 29 C2.68 29 1.36 29 0 29 C0 19.43 0 9.86 0 0 Z " fill="#383737" transform="translate(176,92)"/>
<path d="M0 0 C2.13604308 3.20406462 2.24208908 3.99600747 2.1953125 7.66796875 C2.18886719 8.56064453 2.18242188 9.45332031 2.17578125 10.37304688 C2.15902344 11.30181641 2.14226562 12.23058594 2.125 13.1875 C2.11597656 14.12787109 2.10695313 15.06824219 2.09765625 16.03710938 C2.07409056 18.35832968 2.04119116 20.67903644 2 23 C1.01 23 0.02 23 -1 23 C-1.13690844 15.27227893 -0.75166913 7.69118596 0 0 Z " fill="#424141" transform="translate(73,74)"/>
<path d="M0 0 C0.66 0.33 1.32 0.66 2 1 C2 8.26 2 15.52 2 23 C-1 20 -1 20 -1.328125 17.6171875 C-1.30234375 16.71226563 -1.2765625 15.80734375 -1.25 14.875 C-1.21132813 13.42287109 -1.21132813 13.42287109 -1.171875 11.94140625 C-0.9375257 7.93083762 -0.52240672 3.98335123 0 0 Z " fill="#C6C5C5" transform="translate(301,31)"/>
<path d="M0 0 C0.99 0.495 0.99 0.495 2 1 C3.32782546 7.08795445 3.11497177 13.23372243 3.0625 19.4375 C3.05798828 20.45521484 3.05347656 21.47292969 3.04882812 22.52148438 C3.03712437 25.01438509 3.02072848 27.50716074 3 30 C2.67 30 2.34 30 2 30 C1.67 26.37 1.34 22.74 1 19 C0.67 19 0.34 19 0 19 C0 12.73 0 6.46 0 0 Z " fill="#B4B3B3" transform="translate(251,35)"/>
<path d="M0 0 C0.66 0 1.32 0 2 0 C2 6.6 2 13.2 2 20 C-1 17 -1 17 -1.328125 13.75 C-1.30234375 12.5125 -1.2765625 11.275 -1.25 10 C-1.23453125 8.7625 -1.2190625 7.525 -1.203125 6.25 C-1 3 -1 3 0 0 Z " fill="#CBCACA" transform="translate(105,37)"/>
<path d="M0 0 C0.99 0 1.98 0 3 0 C3 4.95 3 9.9 3 15 C2.01 15.33 1.02 15.66 0 16 C0 10.72 0 5.44 0 0 Z " fill="#232323" transform="translate(201,95)"/>
<path d="M0 0 C2.03120707 3.04681061 2.24659875 3.60118324 2.1953125 7.01171875 C2.18886719 7.76904297 2.18242187 8.52636719 2.17578125 9.30664062 C2.15902344 10.09232422 2.14226562 10.87800781 2.125 11.6875 C2.11597656 12.48478516 2.10695313 13.28207031 2.09765625 14.10351562 C2.07411585 16.069139 2.03824547 18.03460775 2 20 C1.01 20 0.02 20 -1 20 C-0.67 13.4 -0.34 6.8 0 0 Z " fill="#313030" transform="translate(314,77)"/>
<path d="M0 0 C0.99 1.485 0.99 1.485 2 3 C1.67 3.66 1.34 4.32 1 5 C0.67 3.35 0.34 1.7 0 0 Z " fill="#000000" transform="translate(16,190)"/>
<path d="" fill="#000000" transform="translate(0,0)"/>
<path d="" fill="#000000" transform="translate(0,0)"/>
<path d="M0 0 C2 1 2 1 2 1 Z " fill="#000000" transform="translate(27,203)"/>
<path d="M0 0 C2 1 2 1 2 1 Z " fill="#000000" transform="translate(358,202)"/>
<path d="M0 0 C2 1 2 1 2 1 Z " fill="#000000" transform="translate(23,201)"/>
<path d="M0 0 C2 1 2 1 2 1 Z " fill="#000000" transform="translate(359,25)"/>
<path d="" fill="#000000" transform="translate(0,0)"/>
<path d="" fill="#000000" transform="translate(0,0)"/>
<path d="" fill="#000000" transform="translate(0,0)"/>
<path d="" fill="#000000" transform="translate(0,0)"/>
<path d="" fill="#000000" transform="translate(0,0)"/>
<path d="" fill="#000000" transform="translate(0,0)"/>
<path d="" fill="#000000" transform="translate(0,0)"/>
<path d="" fill="#000000" transform="translate(0,0)"/>
<path d="" fill="#000000" transform="translate(0,0)"/>
<path d="" fill="#000000" transform="translate(0,0)"/>
<path d="" fill="#000000" transform="translate(0,0)"/>
<path d="" fill="#000000" transform="translate(0,0)"/>
<path d="" fill="#000000" transform="translate(0,0)"/>
<path d="" fill="#000000" transform="translate(0,0)"/>
<path d="" fill="#000000" transform="translate(0,0)"/>
<path d="" fill="#000000" transform="translate(0,0)"/>
<path d="" fill="#000000" transform="translate(0,0)"/>
<path d="" fill="#000000" transform="translate(0,0)"/>
</svg>
